<?xml version="1.0" encoding="utf-8"?>
<!-- Generator: Adobe Illustrator 27.8.1, SVG Export Plug-In . SVG Version: 6.00 Build 0)  -->
<svg version="1.1" id="Laag_1" focusable="false" xmlns="http://www.w3.org/2000/svg" xmlns:xlink="http://www.w3.org/1999/xlink"
	 x="0px" y="0px" viewBox="0 0 48 48" style="enable-background:new 0 0 48 48;" xml:space="preserve">
<style type="text/css">
	.st0{fill:#FFFFFF;}
	.st1{fill-rule:evenodd;clip-rule:evenodd;fill:#FFFFFF;}
</style>
<path class="st0" d="M10.9,38c-1.3,1.5-2,3.4-2.2,4.6c-0.3,1.6-1.9,2.7-3.5,2.4c-1.6-0.3-2.7-1.9-2.4-3.5c0.4-2,1.4-4.9,3.5-7.3
	c2.1-2.5,5.4-4.7,9.9-4.7h15.6c4.5,0,7.8,2.1,9.9,4.7c2.1,2.5,3.1,5.3,3.5,7.3c0.3,1.6-0.8,3.2-2.4,3.5c-1.6,0.3-3.2-0.8-3.5-2.4
	c-0.2-1.2-0.9-3.1-2.2-4.6c-1.2-1.4-2.9-2.5-5.3-2.5H16.2C13.8,35.5,12.1,36.5,10.9,38z"/>
<path class="st1" d="M24,21.3c3.4,0,6.1-2.7,6.1-6.1c0-3.4-2.7-6.1-6.1-6.1c-3.4,0-6.1,2.7-6.1,6.1C17.9,18.5,20.6,21.3,24,21.3z
	 M24,27.3c6.7,0,12.1-5.4,12.1-12.1C36.1,8.4,30.7,3,24,3c-6.7,0-12.1,5.4-12.1,12.1C11.9,21.8,17.3,27.3,24,27.3z"/>
</svg>
