<?xml version="1.0" encoding="utf-8"?>
<!-- Generator: Adobe Illustrator 27.8.1, SVG Export Plug-In . SVG Version: 6.00 Build 0)  -->
<svg version="1.1" id="Laag_1" focusable="false" xmlns="http://www.w3.org/2000/svg" xmlns:xlink="http://www.w3.org/1999/xlink"
	 x="0px" y="0px" viewBox="0 0 48 48" style="enable-background:new 0 0 48 48;" xml:space="preserve">
<style type="text/css">
	.st0{fill:#FFFFFF;}
</style>
<path class="st0" d="M45.4,25.5l0.1-3.5c0-3.9-3.1-7-7-7s-7,3.1-7,7l-0.1,3.5v0c-1.5,0.9-2.6,2.5-2.6,4.3V37c0,2.8,2.2,5,5,5H43
	c2.8,0,5-2.2,5-5v-7.1C48,28,46.9,26.3,45.4,25.5L45.4,25.5z M38.4,19c1.7,0,3,1.4,3,3l0,2.9h-6l0-2.9C35.4,20.4,36.8,19,38.4,19
	L38.4,19z M44,37c0,0.5-0.5,1-1,1h-9.2c-0.5,0-1-0.5-1-1v-7.1c0-0.6,0.5-1,1-1H43c0.5,0,1,0.4,1,1V37z"/>
<path class="st0" d="M38.4,30.1c-1.1,0-2,0.9-2,2v2.6c0,1.1,0.9,2,2,2c1.1,0,2-0.9,2-2v-2.6C40.4,31,39.5,30.1,38.4,30.1z"/>
<path class="st0" d="M30,29.9c0-0.7,0.1-1.3,0.4-1.9H6v-7.3h25.3V27c0,0,0.1-1.5,0.1-1.5l1.6,0V22c0-3.4,1-4.4,4.3-5v-5.9
	c0-2.8-2.2-5-5-5H5c-2.8,0-5,2.2-5,5V29c0,2.8,2.2,5,5,5h25V29.9z M6,12.1h25.3v2.6H6V12.1z"/>
</svg>
