<?xml version="1.0" encoding="UTF-8"?>
<svg xmlns="http://www.w3.org/2000/svg" viewBox="0 0 48 42">
  <defs>
    <style>
      .cls-1 {
        fill: #fff;
        stroke-width: 0px;
      }
    </style>
  </defs>
  <g id="Laag_1" data-name="Laag 1" focusable="false">
    <path class="cls-1" d="m23,37.5c0,2.49-2.01,4.5-4.5,4.5s-4.5-2.01-4.5-4.5,2.01-4.5,4.5-4.5,4.5,2.01,4.5,4.5Zm18,0c0,2.49-2.01,4.5-4.5,4.5s-4.5-2.01-4.5-4.5,2.01-4.5,4.5-4.5,4.5,2.01,4.5,4.5Z"/>
    <path class="cls-1" d="m19,18.5c0-1.66,1.34-3,3-3h12c1.66,0,3,1.34,3,3s-1.34,3-3,3h-12c-1.66,0-3-1.34-3-3Z"/>
    <path class="cls-1" d="m0,3C0,1.34,1.34,0,3,0h7.5c1.43,0,2.67,1.01,2.94,2.42l4.23,21.58h20.91l3.46-19.1c.3-1.63,1.86-2.71,3.49-2.42s2.71,1.86,2.42,3.49l-3.91,21.57c-.26,1.43-1.5,2.47-2.95,2.47H15.21c-1.43,0-2.67-1.01-2.94-2.42L8.03,6H3c-1.66,0-3-1.34-3-3Z"/>
  </g>
</svg>