<?xml version="1.0" encoding="UTF-8"?>
<svg xmlns="http://www.w3.org/2000/svg" viewBox="0 0 42.4 42">
  <defs>
    <style>
      .cls-1 {
        fill-rule: evenodd;
      }

      .cls-1, .cls-2 {
        fill: #fff;
        stroke-width: 0px;
      }
    </style>
  </defs>
  <g id="Laag_1" data-name="Laag 1" focusable="false">
    <path class="cls-2" d="m8.12,34.97c-1.27,1.52-1.95,3.4-2.17,4.57-.3,1.63-1.86,2.71-3.49,2.41-1.63-.3-2.71-1.86-2.41-3.49.36-2.01,1.42-4.89,3.47-7.35,2.12-2.53,5.37-4.65,9.88-4.65h15.6c4.52,0,7.77,2.12,9.88,4.65,2.05,2.45,3.1,5.34,3.47,7.35.3,1.63-.78,3.19-2.42,3.49-1.63.3-3.19-.78-3.49-2.41-.21-1.17-.9-3.05-2.17-4.57-1.2-1.44-2.86-2.5-5.28-2.5h-15.6c-2.42,0-4.08,1.06-5.28,2.5Z"/>
    <path class="cls-1" d="m21.2,18.27c3.39,0,6.13-2.75,6.13-6.13s-2.75-6.13-6.13-6.13-6.13,2.75-6.13,6.13,2.75,6.13,6.13,6.13Zm0,6c6.7,0,12.13-5.43,12.13-12.13S27.9,0,21.2,0s-12.13,5.43-12.13,12.13,5.43,12.13,12.13,12.13Z"/>
  </g>
</svg>