<?xml version="1.0" encoding="UTF-8"?>
<svg xmlns="http://www.w3.org/2000/svg" viewBox="0 0 42.02 41.87">
  <defs>
    <style>
      .cls-1 {
        fill: #fff;
        stroke-width: 0px;
      }
    </style>
  </defs>
  <g id="Laag_1" data-name="Laag 1" focusable="false">
    <path class="cls-1" d="m24,10.17c0-.5.3-1.1,1-1.9.6-.8,1.5-1.4,2.5-1.9,1-.4,2-.5,3-.3,1.1.2,2.4.9,3.8,2.4,1.8,1.9,2,4.2,1.4,7-.8,2.9-2.5,5.8-4.2,8.2-1.7,2.5-4,5.8-6.3,8.4-.91,1.09-1.91,2.09-3,3-.36.32-.76.59-1.2.8-.43-.18-.83-.41-1.2-.7-1.09-.94-2.1-1.98-3-3.1-2.3-2.6-4.6-5.9-6.3-8.4-1.87-2.47-3.29-5.24-4.2-8.2-.7-2.8-.3-5.1,1.4-7,.96-1.16,2.25-2,3.7-2.4,1.04-.23,2.12-.13,3.1.3,1,.5,1.9,1.1,2.5,2,.7.7,1,1.3,1,1.8.15,1.54,1.45,2.71,3,2.7,1.55,0,2.85-1.16,3-2.7Zm-3,31.7c2,0,3.7-1,4.9-2,1.3-1,2.6-2.4,3.9-3.9,2.5-2.9,5-6.4,6.7-8.8,1.8-2.6,4-6.3,5-10.3s.8-8.7-2.8-12.5c-1.82-2.04-4.23-3.48-6.9-4.1-2.24-.5-4.58-.29-6.7.6-1.6.7-3,1.7-4.1,2.9-1.16-1.23-2.55-2.22-4.1-2.9C14.79-.03,12.44-.24,10.2.27,3.19,1.81-1.24,8.75.31,15.76c.08.37.18.74.3,1.11,1,3.9,3.1,7.6,5,10.2,1.7,2.4,4.1,6,6.6,8.8,1.3,1.5,2.6,2.8,4,3.9,1.1,1,2.8,2,4.8,2"/>
  </g>
</svg>