<svg class="icon icon--size-6" aria-hidden="true" viewBox="0 0 48 48" focusable="false">

    <path
        d="M27 13.3c0-.5.3-1.1 1-1.9.6-.8 1.5-1.4 2.5-1.9 1-.4 2-.5 3-.3 1.1.2 2.4.9 3.8 2.4 1.8 1.9 2 4.2 1.4 7-.8 2.9-2.5 5.8-4.2 8.2-1.7 2.5-4 5.8-6.3 8.4a24 24 0 0 1-3 3 5 5 0 0 1-1.2.8 5 5 0 0 1-1.2-.7 24 24 0 0 1-3-3.1c-2.3-2.6-4.6-5.9-6.3-8.4a26.6 26.6 0 0 1-4.2-8.2c-.7-2.8-.3-5.1 1.4-7a7.3 7.3 0 0 1 3.7-2.4 5 5 0 0 1 3.1.3c1 .5 1.9 1.1 2.5 2 .7.7 1 1.3 1 1.8a3 3 0 0 0 3 2.7 3 3 0 0 0 3-2.7ZM24 45c2 0 3.7-1 4.9-2 1.3-1 2.6-2.4 3.9-3.9 2.5-2.9 5-6.4 6.7-8.8 1.8-2.6 4-6.3 5-10.3 1-4 .8-8.7-2.8-12.5a13.3 13.3 0 0 0-6.9-4.1 11 11 0 0 0-6.7.6c-1.6.7-3 1.7-4.1 2.9A12.7 12.7 0 0 0 19.9 4a11 11 0 0 0-6.7-.6A13 13 0 0 0 3.6 20c1 3.9 3.1 7.6 5 10.2 1.7 2.4 4.1 6 6.6 8.8 1.3 1.5 2.6 2.8 4 3.9 1.1 1 2.8 2 4.8 2"></path>

</svg>