<?xml version="1.0" encoding="utf-8"?>
<!-- Generator: Adobe Illustrator 27.8.1, SVG Export Plug-In . SVG Version: 6.00 Build 0)  -->
<svg version="1.1" id="Laag_1" focusable="false" xmlns="http://www.w3.org/2000/svg" xmlns:xlink="http://www.w3.org/1999/xlink"
	 x="0px" y="0px" viewBox="0 0 99 99" style="enable-background:new 0 0 99 99;" xml:space="preserve">
<style type="text/css">
	.st0{fill:#00B900;}
	.st1{fill:#FFFFFF;}
</style>
<circle class="st0" cx="49.5" cy="49.5" r="49.5"/>
<path class="st0" d="M49.5,99C77.5,99,99,76.8,99,49.5S77.5,0,49.5,0V99z"/>
<path class="st1" d="M53.4,24.2l5,15.6c0,0,11.7-0.2,16.4-0.1c4,0,5.9,4.9,2.4,7.5c-3.7,2.6-13.3,9.5-13.3,9.5L69,72.2
	c1.2,4-3.1,7-6.4,4.6L49.5,65.3L36.3,76.8c-3.4,2.4-7.6-0.7-6.4-4.6l5.2-15.5l-13.3-9.5c-3.1-2.2-2.1-7.4,2.4-7.5l16.4,0.1l4.9-15.6
	C46.9,20.1,52.2,20.5,53.4,24.2z"/>
</svg>
